<svg xmlns="http://www.w3.org/2000/svg" width="392.49" height="446.033" viewBox="0 0 392.49 446.033">
  <g id="Group_208" data-name="Group 208" transform="translate(-16 -9.995)">
    <path id="Path_4640" data-name="Path 4640" d="M212.245,456.028c109.942,0,196.245-84.071,196.245-191.337,0-126.221-89.425-213.416-172.829-252.665a18.907,18.907,0,0,0-19.625,1.561c-6.021,4.014-9.143,10.927-8.474,18.955,7.582,49.061,2.676,112.172-60.658,140.494-5.575-12.711-8.474-29.883-9.366-43.932a19.89,19.89,0,0,0-10.481-15.833,20.618,20.618,0,0,0-19.4.223C63.277,138.247,16,199.8,16,264.468,16,377.309,96.728,456.028,212.245,456.028Z"/>
  </g>
</svg>
