<svg xmlns="http://www.w3.org/2000/svg" width="972.926" height="1003.839" viewBox="0 0 972.926 1003.839">
  <g id="Group_4076" data-name="Group 4076" transform="translate(-4591.5 -44)">
    <g id="Group_4075" data-name="Group 4075" transform="translate(4548.626 0.706)">
      <g id="Background_Complete" data-name="Background Complete" transform="translate(49.698 52.2)">
        <g id="Group_3998" data-name="Group 3998">
          <rect id="Rectangle_1745" data-name="Rectangle 1745" width="70.313" height="29.712" transform="translate(39.223 605.451)" fill="none" stroke="#ebebeb" stroke-miterlimit="10" stroke-width="1"/>
          <rect id="Rectangle_1746" data-name="Rectangle 1746" width="70.313" height="29.712" transform="translate(0 642.916)" fill="none" stroke="#ebebeb" stroke-miterlimit="10" stroke-width="1"/>
          <rect id="Rectangle_1747" data-name="Rectangle 1747" width="70.313" height="29.712" fill="none" stroke="#ebebeb" stroke-miterlimit="10" stroke-width="1"/>
          <rect id="Rectangle_1748" data-name="Rectangle 1748" width="70.313" height="29.712" transform="translate(888.964)" fill="none" stroke="#ebebeb" stroke-miterlimit="10" stroke-width="1"/>
          <rect id="Rectangle_1749" data-name="Rectangle 1749" width="70.313" height="29.712" transform="translate(849.741 37.465)" fill="none" stroke="#ebebeb" stroke-miterlimit="10" stroke-width="1"/>
          <rect id="Rectangle_1750" data-name="Rectangle 1750" width="70.313" height="29.712" transform="translate(669.66 385.061)" fill="none" stroke="#ebebeb" stroke-miterlimit="10" stroke-width="1"/>
          <rect id="Rectangle_1751" data-name="Rectangle 1751" width="70.313" height="29.712" transform="translate(630.438 422.526)" fill="none" stroke="#ebebeb" stroke-miterlimit="10" stroke-width="1"/>
          <rect id="Rectangle_1752" data-name="Rectangle 1752" width="70.313" height="29.712" transform="translate(591.369 385.061)" fill="none" stroke="#ebebeb" stroke-miterlimit="10" stroke-width="1"/>
          <rect id="Rectangle_1753" data-name="Rectangle 1753" width="70.313" height="29.712" transform="translate(888.964 642.916)" fill="none" stroke="#ebebeb" stroke-miterlimit="10" stroke-width="1"/>
          <rect id="Rectangle_1754" data-name="Rectangle 1754" width="70.313" height="29.712" transform="translate(291.556 88.354)" fill="none" stroke="#ebebeb" stroke-miterlimit="10" stroke-width="1"/>
        </g>
        <g id="Group_3999" data-name="Group 3999" transform="translate(51.076 116.135)">
          <path id="Path_4998" data-name="Path 4998" d="M468.85,228.213,482.7,205.894l-6.835-4.236a6.246,6.246,0,0,1-2.9-5.875,35.782,35.782,0,0,0,.125-3.925,6.238,6.238,0,0,1,3.26-5.668l7.086-3.8-12.42-23.154-7.084,3.8a6.238,6.238,0,0,1-6.524-.419,37.16,37.16,0,0,0-3.34-2.07,6.243,6.243,0,0,1-3.29-5.663l.254-8.039-26.254-.816-.242,8.067a6.246,6.246,0,0,1-3.662,5.433c-.581.275-1.155.567-1.726.873s-1.131.623-1.679.957a6.23,6.23,0,0,1-6.522.047l-6.886-4.264L390.21,179.458l6.849,4.25a6.25,6.25,0,0,1,2.893,5.88,36.759,36.759,0,0,0-.129,3.911,6.239,6.239,0,0,1-3.257,5.661l-7.089,3.8,12.418,23.157,7.089-3.8a6.236,6.236,0,0,1,6.517.416,36.038,36.038,0,0,0,3.33,2.058,6.246,6.246,0,0,1,3.3,5.661l-.249,8.058,26.254.816.249-8.06a6.238,6.238,0,0,1,3.653-5.416q.875-.413,1.74-.877c.569-.306,1.131-.623,1.679-.957a6.258,6.258,0,0,1,6.555-.045Zm-22.228-16.576a21.515,21.515,0,1,1,8.806-29.126A21.5,21.5,0,0,1,446.622,211.637Z" transform="translate(367.12 -29.452)" fill="#ebebeb"/>
          <path id="Path_4999" data-name="Path 4999" d="M147.156,335.752,161,313.432l-6.837-4.236a6.239,6.239,0,0,1-2.9-5.875,37.04,37.04,0,0,0,.125-3.928,6.24,6.24,0,0,1,3.257-5.666l7.086-3.8-12.418-23.154-7.086,3.8a6.239,6.239,0,0,1-6.524-.421,35.959,35.959,0,0,0-3.34-2.067,6.249,6.249,0,0,1-3.29-5.666l.256-8.036-26.254-.816-.245,8.067a6.246,6.246,0,0,1-3.66,5.433q-.871.413-1.729.87c-.569.306-1.131.626-1.679.957a6.23,6.23,0,0,1-6.522.049l-6.886-4.266L68.514,287l6.849,4.25a6.243,6.243,0,0,1,2.893,5.88,36.137,36.137,0,0,0-.127,3.911,6.241,6.241,0,0,1-3.26,5.661l-7.089,3.8L80.2,333.656l7.089-3.8a6.24,6.24,0,0,1,6.519.416,36.48,36.48,0,0,0,3.328,2.056,6.245,6.245,0,0,1,3.3,5.663l-.247,8.058,26.252.816.252-8.06a6.233,6.233,0,0,1,3.65-5.416c.583-.275,1.164-.569,1.74-.877s1.131-.626,1.682-.957a6.253,6.253,0,0,1,6.555-.045Zm-22.23-16.576a21.517,21.517,0,1,1,8.808-29.126A21.5,21.5,0,0,1,124.926,319.176Z" transform="translate(-67.78 115.93)" fill="#ebebeb"/>
          <path id="Path_5000" data-name="Path 5000" d="M253.422,120.633l-9.2-15.936-4.878,2.818a4.373,4.373,0,0,1-4.586-.155,25.7,25.7,0,0,0-2.382-1.378,4.368,4.368,0,0,1-2.42-3.888V96.46H211.552v5.633a4.368,4.368,0,0,1-2.42,3.888,25.691,25.691,0,0,0-2.382,1.378,4.378,4.378,0,0,1-4.586.155l-4.878-2.818-9.2,15.936,4.9,2.822a4.379,4.379,0,0,1,2.143,4.059q-.035.674-.035,1.355t.035,1.355A4.361,4.361,0,0,1,193,134.264l-4.913,2.839,9.2,15.939,4.892-2.82a4.373,4.373,0,0,1,4.586.16,25.281,25.281,0,0,0,2.373,1.374,4.374,4.374,0,0,1,2.415,3.888v5.635H229.96v-5.635a4.374,4.374,0,0,1,2.415-3.888,24.952,24.952,0,0,0,2.371-1.374,4.378,4.378,0,0,1,4.589-.16l4.892,2.82,9.2-15.939-4.892-2.822a4.371,4.371,0,0,1-2.135-4.048c.023-.452.035-.905.035-1.364s-.012-.905-.035-1.355a4.383,4.383,0,0,1,2.143-4.062Zm-17.592,8.236a15.074,15.074,0,1,1-15.066-15.08A15.063,15.063,0,0,1,235.83,128.869Z" transform="translate(94.865 -96.46)" fill="#ebebeb"/>
        </g>
      </g>
      <g id="Plant" transform="translate(46.548 587.586)">
        <g id="Group_4006" data-name="Group 4006">
          <g id="Group_4001" data-name="Group 4001" transform="translate(71.867 44.18)">
            <path id="Path_5001" data-name="Path 5001" d="M107.159,303.94c-30.735,30.09-35.895,76.641-29.418,117.416.169.927,1.6.673,1.6-.2,0-9.283-.28-18.481-.252-27.651.167-.421.308-.814.475-1.235,8.022-5.833,15.4-12.423,19.968-21.452,5.132-10.1,7.15-21.482,11.077-32.026.365-1.009-.713-.713-1.416-.193-18.7,13.789-24.655,28.627-30.02,48.456a164.874,164.874,0,0,1,3.253-30.876c4.038-18.818,12.03-37.468,25.546-51.431C108.478,304.22,107.693,303.406,107.159,303.94Z" transform="translate(-75.281 -279.635)" fill="#263238"/>
            <g id="Group_4000" data-name="Group 4000" transform="translate(26.734)">
              <path id="Path_5002" data-name="Path 5002" d="M97.349,321.318c5.289.179,8.6,8.631,12.724,11.1,2.18,1.312,4.3,1.232,5.835-.917,4.083-5.7-1.519-12.731-6.788-16.663,3.768,1.55,6.893,4.271,10.955,5.042,2.46.452,4.372-.459,4.946-2.961,1.79-7.771-7.956-11.228-14.643-11.39,3.243-2.253,12.533-8.38,7.6-11.393-5-3.025-15.9,5.736-19.46,8.622-5.228,4.24-11.461,10.576-11.7,17.209C86.512,327.708,93.28,322.943,97.349,321.318Z" transform="translate(-86.429 -293.506)" fill="#ffc727"/>
              <path id="Path_5003" data-name="Path 5003" d="M97.349,321.318c5.289.179,8.6,8.631,12.724,11.1,2.18,1.312,4.3,1.232,5.835-.917,4.083-5.7-1.519-12.731-6.788-16.663,3.768,1.55,6.893,4.271,10.955,5.042,2.46.452,4.372-.459,4.946-2.961,1.79-7.771-7.956-11.228-14.643-11.39,3.243-2.253,12.533-8.38,7.6-11.393-5-3.025-15.9,5.736-19.46,8.622-5.228,4.24-11.461,10.576-11.7,17.209C86.512,327.708,93.28,322.943,97.349,321.318Z" transform="translate(-86.429 -293.506)" opacity="0.1"/>
              <path id="Path_5004" data-name="Path 5004" d="M96.039,318.53c6.759-3.074,19.747,1.35,20.852-1.209,2.239-5.209-8.14-8.782-13.742-9.473,5.16-1.4,15.045-3.624,14.742-8.6-.372-6.077-15.163-.851-22.649,4.89-9.431,7.232-9.37,14.208-7.811,15.607C89.569,321.662,94.922,319.038,96.039,318.53Z" transform="translate(-86.648 -289.413)" fill="#ffc727"/>
            </g>
          </g>
          <g id="Group_4003" data-name="Group 4003" transform="translate(0 42.124)">
            <path id="Path_5005" data-name="Path 5005" d="M60.342,302.665C92.2,331.565,99.127,377.888,94.2,418.879c-.134.931-1.571.734-1.606-.136-.353-9.274-.421-18.477-.8-27.64-.186-.414-.341-.8-.524-1.216-8.236-5.522-15.856-11.828-20.767-20.678C65,359.317,62.546,348.016,58.221,337.63c-.4-1,.684-.741,1.409-.247,19.206,13.067,25.725,27.668,31.84,47.278a164.75,164.75,0,0,0-4.424-30.73C82.295,335.281,73.6,316.95,59.561,303.509,59.037,303,59.79,302.152,60.342,302.665Z" transform="translate(-26.594 -279.283)" fill="#263238"/>
            <g id="Group_4002" data-name="Group 4002">
              <path id="Path_5006" data-name="Path 5006" d="M72.834,319.738c-5.278.379-8.269,8.951-12.293,11.571-2.128,1.395-4.252,1.395-5.866-.694-4.3-5.541,1.035-12.78,6.148-16.91-3.707,1.691-6.724,4.532-10.753,5.456-2.441.546-4.386-.294-5.057-2.771-2.084-7.7,7.524-11.522,14.2-11.941-3.323-2.128-12.841-7.9-8.025-11.094,4.885-3.213,16.113,5.125,19.775,7.874,5.386,4.038,11.856,10.134,12.343,16.753C83.9,325.71,76.962,321.206,72.834,319.738Z" transform="translate(-44.724 -292.632)" fill="#ffc727"/>
              <path id="Path_5007" data-name="Path 5007" d="M72.834,319.738c-5.278.379-8.269,8.951-12.293,11.571-2.128,1.395-4.252,1.395-5.866-.694-4.3-5.541,1.035-12.78,6.148-16.91-3.707,1.691-6.724,4.532-10.753,5.456-2.441.546-4.386-.294-5.057-2.771-2.084-7.7,7.524-11.522,14.2-11.941-3.323-2.128-12.841-7.9-8.025-11.094,4.885-3.213,16.113,5.125,19.775,7.874,5.386,4.038,11.856,10.134,12.343,16.753C83.9,325.71,76.962,321.206,72.834,319.738Z" transform="translate(-44.724 -292.632)" opacity="0.1"/>
              <path id="Path_5008" data-name="Path 5008" d="M70.32,316.934c-6.872-2.813-19.683,2.1-20.885-.414-2.434-5.12,7.8-9.083,13.373-9.989-5.209-1.2-15.172-3.048-15.057-8.032.139-6.087,15.118-1.428,22.818,4.024,9.7,6.868,9.9,13.843,8.4,15.3C76.9,319.82,71.454,317.4,70.32,316.934Z" transform="translate(-40.632 -288.583)" fill="#ffc727"/>
            </g>
          </g>
          <g id="Group_4005" data-name="Group 4005" transform="translate(37.812)">
            <path id="Path_5009" data-name="Path 5009" d="M89.315,397.2c2.352,15.231,5.268,30.979,9.892,45.695a1.137,1.137,0,0,0,2.225-.449c-2.091-14.083-5.906-27.9-8-41.984a211.419,211.419,0,0,1-2.446-43.106c1.341-23.728,7.785-48.969,23.267-67.535.341-.442-.381-1.063-.731-.654-31,36.144-26.068,80.461-26.04,84.433-4.389-14.965-8.911-32.117-25.511-47.353-.717-.659-1.275-.346-1.155.771C63.785,354.775,71.5,369.265,87.591,384.1,88.05,388.5,88.617,392.878,89.315,397.2Z" transform="translate(-60.801 -255.369)" fill="#263238"/>
            <g id="Group_4004" data-name="Group 4004" transform="translate(40.886)">
              <path id="Path_5010" data-name="Path 5010" d="M91.033,313.33c5.576-2.477,13.269,4.624,18.787,5.108,2.921.266,5.085-.887,5.593-3.888,1.366-7.971-7.985-12.444-15.431-13.874,4.69-.289,9.3.962,13.9-.28,2.78-.771,4.306-2.681,3.643-5.565-2.056-8.963-13.907-7.644-20.927-4.447,2.23-3.97,8.784-15,2.147-15.645-6.712-.619-13.615,13.956-15.852,18.742-3.29,7.03-6.566,16.743-3.471,23.742C83.006,325.414,87.63,317.062,91.033,313.33Z" transform="translate(-78.185 -274.721)" fill="#ffc727"/>
              <path id="Path_5011" data-name="Path 5011" d="M91.033,313.33c5.576-2.477,13.269,4.624,18.787,5.108,2.921.266,5.085-.887,5.593-3.888,1.366-7.971-7.985-12.444-15.431-13.874,4.69-.289,9.3.962,13.9-.28,2.78-.771,4.306-2.681,3.643-5.565-2.056-8.963-13.907-7.644-20.927-4.447,2.23-3.97,8.784-15,2.147-15.645-6.712-.619-13.615,13.956-15.852,18.742-3.29,7.03-6.566,16.743-3.471,23.742C83.006,325.414,87.63,317.062,91.033,313.33Z" transform="translate(-78.185 -274.721)" opacity="0.1"/>
              <path id="Path_5012" data-name="Path 5012" d="M89.853,310.774c5.468-6.592,21.169-8.54,21.028-11.75-.3-6.531-12.865-5.014-19.027-2.912,4.65-4.048,13.784-11.334,10.967-16.343-3.446-6.117-16.16,6.75-21.04,16.475-6.143,12.251-2.568,19.46-.247,20.125C84.718,317.282,88.952,311.863,89.853,310.774Z" transform="translate(-77.936 -270.042)" fill="#ffc727"/>
            </g>
          </g>
          <path id="Path_5013" data-name="Path 5013" d="M72.112,338.648,58.44,443.108h83.2c-1.715-9.255-17.2-104.582-17.2-104.582Z" transform="translate(-26.181 -188.463)" fill="#ffc727"/>
        </g>
      </g>
      <g id="Floor" transform="translate(43.374 842.584)">
        <line id="Line_1" data-name="Line 1" x2="971.926" fill="none" stroke="#263238" stroke-linecap="round" stroke-linejoin="round" stroke-width="1"/>
      </g>
      <g id="Shadow" transform="translate(178.771 947.999)">
        <ellipse id="Ellipse_492" data-name="Ellipse 492" cx="350.565" cy="49.567" rx="350.565" ry="49.567" fill="#ebebeb"/>
      </g>
      <g id="_404_Error" data-name="404 Error" transform="translate(166.783 43.294)">
        <g id="Group_4009" data-name="Group 4009">
          <g id="Group_4007" data-name="Group 4007" transform="translate(0 110.283)">
            <path id="Path_5014" data-name="Path 5014" d="M241.021,405.741l-14.6-57.457L111.089,377.6,95.846,317.623l92.166-210.05,45.714-11.618,44.446,174.885,36.906-9.379,15.348,60.392-36.906,9.379,14.6,57.457ZM162,300.362l57.036-14.495-18.865-74.233Z" transform="translate(-95.846 -82.386)" fill="#263238"/>
            <path id="Path_5015" data-name="Path 5015" d="M427.861,221.734q0,28.561-8.653,52.577a130.514,130.514,0,0,1-23.8,41.542,107.76,107.76,0,0,1-35.7,27.261,103.3,103.3,0,0,1-44.79,9.737,104.671,104.671,0,0,1-45-9.737A107,107,0,0,1,234,315.852a127.252,127.252,0,0,1-23.585-41.542q-8.439-24.018-8.439-52.577t8.439-52.574A127.2,127.2,0,0,1,234,127.618a109.631,109.631,0,0,1,35.916-27.48,102.8,102.8,0,0,1,45-9.953,101.464,101.464,0,0,1,44.79,9.953,110.457,110.457,0,0,1,35.7,27.48,130.462,130.462,0,0,1,23.8,41.542Q427.855,193.173,427.861,221.734Zm-69.67,0q0-30.283-12.117-49.115T314.918,153.8q-19.908,0-31.8,18.822t-11.9,49.115q0,30.294,11.9,48.9t31.8,18.606q19.04,0,31.156-18.606T358.191,221.734Z" transform="translate(47.633 -90.185)" fill="#263238"/>
            <path id="Path_5016" data-name="Path 5016" d="M412.914,392.316l9.48-58.52L304.929,314.767l9.894-61.083L483,97.694l46.561,7.543L500.706,283.357l37.59,6.091-9.965,61.509-37.59-6.089-9.48,58.52Zm-30.53-128.127,58.092,9.412L452.727,198Z" transform="translate(186.812 -80.034)" fill="#263238"/>
          </g>
          <g id="Group_4008" data-name="Group 4008" transform="translate(232.49)">
            <path id="Path_5017" data-name="Path 5017" d="M227.57,111.781a30.665,30.665,0,0,1-13.443-2.9,32.968,32.968,0,0,1-10.355-7.7A35.692,35.692,0,0,1,194.7,77.577a33.9,33.9,0,0,1,2.519-12.921,35.655,35.655,0,0,1,6.933-10.925,33.1,33.1,0,0,1,10.5-7.554,31.171,31.171,0,0,1,13.206-2.8A29.6,29.6,0,0,1,241.2,46.368,33.349,33.349,0,0,1,251.513,54.2a36.13,36.13,0,0,1,6.651,11.023,34.686,34.686,0,0,1,2.375,12.54,34.169,34.169,0,0,1-2.469,12.874,35.048,35.048,0,0,1-6.842,10.83,32.872,32.872,0,0,1-10.452,7.5A31.144,31.144,0,0,1,227.57,111.781ZM208,77.577a27.059,27.059,0,0,0,1.331,8.455,22.536,22.536,0,0,0,3.848,7.22,19.148,19.148,0,0,0,6.176,5.038,19.136,19.136,0,0,0,16.72-.049,19.088,19.088,0,0,0,6.176-5.179,23.021,23.021,0,0,0,3.8-7.265,26.967,26.967,0,0,0,1.284-8.22,26.323,26.323,0,0,0-1.378-8.455,23.372,23.372,0,0,0-3.9-7.223,18.581,18.581,0,0,0-6.174-4.986,19.243,19.243,0,0,0-16.675.094,18.777,18.777,0,0,0-6.174,5.132,23.009,23.009,0,0,0-3.754,7.22A26.962,26.962,0,0,0,208,77.577Z" transform="translate(-194.698 -43.183)" fill="#263238"/>
            <path id="Path_5018" data-name="Path 5018" d="M251.246,102.318a27.336,27.336,0,0,1-10.927-2.091,24.544,24.544,0,0,1-8.22-5.652,24.949,24.949,0,0,1-5.177-8.22,27.669,27.669,0,0,1,0-19.667,24.938,24.938,0,0,1,5.177-8.218,24.549,24.549,0,0,1,8.22-5.654,27.336,27.336,0,0,1,10.927-2.091,27,27,0,0,1,10.878,2.091A24.524,24.524,0,0,1,275.47,66.689a27.669,27.669,0,0,1,0,19.667,25.335,25.335,0,0,1-5.129,8.22,24.035,24.035,0,0,1-8.171,5.652A27.341,27.341,0,0,1,251.246,102.318ZM238.228,76.57a17.321,17.321,0,0,0,1,6.033,14.724,14.724,0,0,0,2.756,4.7,12.279,12.279,0,0,0,4.132,3.088,12.582,12.582,0,0,0,10.261,0,12.3,12.3,0,0,0,4.132-3.088,14.6,14.6,0,0,0,2.754-4.751,17.716,17.716,0,0,0,1-6.08,17.46,17.46,0,0,0-1-5.986,14.624,14.624,0,0,0-2.754-4.751,12.333,12.333,0,0,0-4.132-3.088,12.161,12.161,0,0,0-5.13-1.091,11.7,11.7,0,0,0-5.132,1.138,12.937,12.937,0,0,0-4.132,3.135,14.654,14.654,0,0,0-2.756,4.751A17.46,17.46,0,0,0,238.228,76.57Z" transform="translate(-153.576 -33.245)" fill="#263238"/>
            <path id="Path_5019" data-name="Path 5019" d="M280.76,102.318A19.617,19.617,0,0,1,270.5,99.705a18.572,18.572,0,0,1-6.842-7.079V121.6H250.929V51.583h11.115v8.551a20.317,20.317,0,0,1,7.126-6.889,19.834,19.834,0,0,1,10.071-2.519,21.322,21.322,0,0,1,9.311,2.044,23.051,23.051,0,0,1,7.364,5.51,25.689,25.689,0,0,1,4.845,8.17,28.147,28.147,0,0,1,1.757,9.93A31.426,31.426,0,0,1,300.9,86.546a26.028,26.028,0,0,1-4.513,8.267,21.114,21.114,0,0,1-6.889,5.51A19.286,19.286,0,0,1,280.76,102.318Zm-4.273-10.83a11.424,11.424,0,0,0,5.273-1.237,12.754,12.754,0,0,0,4.132-3.323,15.673,15.673,0,0,0,2.66-4.847,17.371,17.371,0,0,0,.95-5.7,16.1,16.1,0,0,0-1.044-5.844,14.536,14.536,0,0,0-2.9-4.7,13.533,13.533,0,0,0-4.37-3.135,13.093,13.093,0,0,0-5.461-1.138,11.951,11.951,0,0,0-3.707.616,13.067,13.067,0,0,0-3.516,1.759,15.38,15.38,0,0,0-2.9,2.66,11.078,11.078,0,0,0-1.947,3.326V81.605a16.926,16.926,0,0,0,5.224,7.079A11.957,11.957,0,0,0,276.487,91.488Z" transform="translate(-118.68 -33.245)" fill="#263238"/>
            <path id="Path_5020" data-name="Path 5020" d="M297.482,102.372a38.543,38.543,0,0,1-12.256-1.994,29.92,29.92,0,0,1-10.261-5.7l4.748-7.98a40.954,40.954,0,0,0,8.885,4.892,23.827,23.827,0,0,0,8.6,1.663,10.877,10.877,0,0,0,5.986-1.425,4.592,4.592,0,0,0,2.185-4.085,4.081,4.081,0,0,0-2.566-3.895A55.16,55.16,0,0,0,294.441,81q-4.844-1.33-8.267-2.566a21.177,21.177,0,0,1-5.508-2.8,9.565,9.565,0,0,1-3.041-3.61,11.5,11.5,0,0,1-.95-4.892,15.48,15.48,0,0,1,1.472-6.842,14.912,14.912,0,0,1,4.132-5.179,19.127,19.127,0,0,1,6.225-3.276,25.267,25.267,0,0,1,7.742-1.141,33.277,33.277,0,0,1,10.5,1.616,25.574,25.574,0,0,1,8.98,5.226l-5.132,7.7a29.834,29.834,0,0,0-7.364-4.182,20.1,20.1,0,0,0-7.074-1.329,10.244,10.244,0,0,0-5.416,1.329,4.631,4.631,0,0,0-2.187,4.276,4.107,4.107,0,0,0,.524,2.185,4.56,4.56,0,0,0,1.663,1.519,16.12,16.12,0,0,0,2.992,1.284q1.856.621,4.607,1.282,5.129,1.334,8.789,2.662a23.946,23.946,0,0,1,5.986,3.039,10.872,10.872,0,0,1,3.422,3.942,12.18,12.18,0,0,1,1.089,5.369,13.85,13.85,0,0,1-5.414,11.543Q306.8,102.373,297.482,102.372Z" transform="translate(-86.185 -33.299)" fill="#263238"/>
            <path id="Path_5021" data-name="Path 5021" d="M297.667,86.049V43.294H310.4V86.049Zm0,25.368V97.07H310.4v14.347Z" transform="translate(-55.495 -43.294)" fill="#263238"/>
          </g>
        </g>
      </g>
      <g id="Robot" transform="translate(232.578 409.884)">
        <g id="Group_4052" data-name="Group 4052">
          <g id="Group_4010" data-name="Group 4010" transform="translate(261.689 269.718)">
            <rect id="Rectangle_1755" data-name="Rectangle 1755" width="83.521" height="6.842" fill="#37474f"/>
            <rect id="Rectangle_1756" data-name="Rectangle 1756" width="83.521" height="6.842" transform="translate(0 8.912)" fill="#37474f"/>
            <rect id="Rectangle_1757" data-name="Rectangle 1757" width="83.521" height="6.842" transform="translate(0 17.824)" fill="#37474f"/>
            <rect id="Rectangle_1758" data-name="Rectangle 1758" width="83.521" height="6.842" transform="translate(0 26.736)" fill="#37474f"/>
            <rect id="Rectangle_1759" data-name="Rectangle 1759" width="83.521" height="6.842" transform="translate(0 35.648)" fill="#37474f"/>
          </g>
          <g id="Group_4011" data-name="Group 4011" transform="translate(222.575 483.149)">
            <rect id="Rectangle_1760" data-name="Rectangle 1760" width="158.791" height="6.842" fill="#37474f"/>
            <rect id="Rectangle_1761" data-name="Rectangle 1761" width="158.791" height="6.842" transform="translate(0 8.912)" fill="#37474f"/>
            <rect id="Rectangle_1762" data-name="Rectangle 1762" width="158.791" height="6.842" transform="translate(0 17.824)" fill="#37474f"/>
            <rect id="Rectangle_1763" data-name="Rectangle 1763" width="158.791" height="6.842" transform="translate(0 26.736)" fill="#37474f"/>
            <rect id="Rectangle_1764" data-name="Rectangle 1764" width="158.791" height="6.842" transform="translate(0 35.648)" fill="#37474f"/>
          </g>
          <g id="Group_4023" data-name="Group 4023" transform="translate(118.147)">
            <g id="Group_4012" data-name="Group 4012" transform="translate(0 70.98)">
              <path id="Path_5022" data-name="Path 5022" d="M208.812,371.526c.078-.924-34.756-12.592-34.756-12.592l2.058-119.679,46.189-9.911Z" transform="translate(-174.056 -229.344)" fill="#ffc727"/>
              <path id="Path_5023" data-name="Path 5023" d="M208.812,371.526c.078-.924-34.756-12.592-34.756-12.592l2.058-119.679,46.189-9.911Z" transform="translate(-174.056 -229.344)" opacity="0.2"/>
            </g>
            <g id="Group_4013" data-name="Group 4013" transform="translate(353.803 121.998)">
              <path id="Path_5024" data-name="Path 5024" d="M324.489,389.177c.245-.894,36.967.136,36.967.136l39.253-113.077-39.956-25.2Z" transform="translate(-324.489 -251.036)" fill="#ffc727"/>
              <path id="Path_5025" data-name="Path 5025" d="M324.489,389.177c.245-.894,36.967.136,36.967.136l39.253-113.077-39.956-25.2Z" transform="translate(-324.489 -251.036)" opacity="0.2"/>
            </g>
            <path id="Path_5026" data-name="Path 5026" d="M185.983,456.4S198.9,262.839,210.224,199.164c0,0,233.816,17.684,360.042,65.931,0,0-65.077,226.081-68.443,237.3C501.824,502.4,337.172,469.961,185.983,456.4Z" transform="translate(-157.932 -199.164)" fill="#ffc727"/>
            <g id="Group_4014" data-name="Group 4014" transform="translate(199.791 25.85)">
              <path id="Path_5027" data-name="Path 5027" d="M289.391,210.155q-5.7,34.957-11.63,69.877l-12.051,69.8-.651-.988L343.4,367.459l39.131,9.483,39.086,9.671-39.293-8.794-39.248-8.979-78.415-18.317-.793-.186.143-.8,12.477-69.727Q282.785,244.954,289.391,210.155Z" transform="translate(-252.427 -210.155)" opacity="0.1"/>
              <path id="Path_5028" data-name="Path 5028" d="M276.293,218.429a4.574,4.574,0,0,1-4.106,4.544,4.567,4.567,0,1,1,0-9.092A4.576,4.576,0,0,1,276.293,218.429Zm0,0a3.666,3.666,0,0,0-4.106-3.662,3.694,3.694,0,0,0,0,7.328,3.667,3.667,0,0,0,4.106-3.667Z" transform="translate(-247.925 -205.145)" opacity="0.1"/>
              <path id="Path_5029" data-name="Path 5029" d="M274.547,230.673a4.573,4.573,0,0,1-4.1,4.546,4.568,4.568,0,1,1,0-9.095A4.576,4.576,0,0,1,274.547,230.673Zm0,0a3.663,3.663,0,0,0-4.1-3.662,3.7,3.7,0,0,0,0,7.331,3.67,3.67,0,0,0,4.1-3.669Z" transform="translate(-250.285 -188.591)" opacity="0.1"/>
              <path id="Path_5030" data-name="Path 5030" d="M272.4,243.612a4.57,4.57,0,0,1-4.1,4.544,4.567,4.567,0,1,1,0-9.092A4.574,4.574,0,0,1,272.4,243.612Zm0,0a3.663,3.663,0,0,0-4.1-3.662,3.694,3.694,0,0,0,0,7.329,3.735,3.735,0,0,0,2.815-.849A3.781,3.781,0,0,0,272.4,243.612Z" transform="translate(-253.192 -171.099)" opacity="0.1"/>
              <path id="Path_5031" data-name="Path 5031" d="M270.247,256.552a4.572,4.572,0,0,1-4.1,4.544,4.567,4.567,0,1,1,0-9.092A4.572,4.572,0,0,1,270.247,256.552Zm0,0a3.663,3.663,0,0,0-4.1-3.662,3.694,3.694,0,0,0,0,7.328,3.67,3.67,0,0,0,4.1-3.667Z" transform="translate(-256.098 -153.607)" opacity="0.1"/>
              <path id="Path_5032" data-name="Path 5032" d="M277.573,277.187a4.574,4.574,0,0,1-4.106,4.544,4.567,4.567,0,1,1,0-9.092A4.576,4.576,0,0,1,277.573,277.187Zm0,0a3.666,3.666,0,0,0-4.106-3.662,3.694,3.694,0,0,0,0,7.328,3.67,3.67,0,0,0,4.106-3.667Z" transform="translate(-246.194 -125.711)" opacity="0.1"/>
              <path id="Path_5033" data-name="Path 5033" d="M289.786,280.166a4.57,4.57,0,0,1-4.106,4.544,4.567,4.567,0,1,1,0-9.092A4.574,4.574,0,0,1,289.786,280.166Zm0,0a3.663,3.663,0,0,0-4.106-3.662,3.694,3.694,0,0,0,0,7.328,3.738,3.738,0,0,0,2.818-.849A3.781,3.781,0,0,0,289.786,280.166Z" transform="translate(-229.684 -121.683)" opacity="0.1"/>
              <path id="Path_5034" data-name="Path 5034" d="M302,283.147a4.574,4.574,0,0,1-4.106,4.544,4.568,4.568,0,1,1,0-9.095A4.58,4.58,0,0,1,302,283.147Zm0,0a3.666,3.666,0,0,0-4.106-3.664,3.7,3.7,0,0,0,0,7.331A3.67,3.67,0,0,0,302,283.147Z" transform="translate(-213.172 -117.656)" opacity="0.1"/>
              <path id="Path_5035" data-name="Path 5035" d="M314.213,286.125a4.572,4.572,0,0,1-4.106,4.544,4.567,4.567,0,1,1,0-9.092A4.576,4.576,0,0,1,314.213,286.125Zm0,0a3.663,3.663,0,0,0-4.106-3.662,3.694,3.694,0,0,0,0,7.329,3.67,3.67,0,0,0,4.106-3.667Z" transform="translate(-196.661 -113.627)" opacity="0.1"/>
              <path id="Path_5036" data-name="Path 5036" d="M326.412,289.437a4.573,4.573,0,0,1-4.443,4.217,4.568,4.568,0,1,1,.7-9.067A4.574,4.574,0,0,1,326.412,289.437Zm0,0a3.665,3.665,0,0,0-3.81-3.968,3.695,3.695,0,0,0-.565,7.307,3.666,3.666,0,0,0,4.375-3.34Z" transform="translate(-180.148 -109.618)" opacity="0.1"/>
              <path id="Path_5037" data-name="Path 5037" d="M268.1,269.491a4.572,4.572,0,0,1-4.1,4.544,4.567,4.567,0,1,1,0-9.092A4.572,4.572,0,0,1,268.1,269.491Zm0,0a3.663,3.663,0,0,0-4.1-3.664,3.7,3.7,0,0,0,0,7.331,3.67,3.67,0,0,0,4.1-3.667Z" transform="translate(-259.005 -136.115)" opacity="0.1"/>
            </g>
            <g id="Group_4021" data-name="Group 4021" transform="translate(22.364 66.502)">
              <g id="Group_4016" data-name="Group 4016">
                <circle id="Ellipse_493" data-name="Ellipse 493" cx="66.397" cy="66.397" r="66.397" transform="translate(0 88.789) rotate(-41.961)" opacity="0.2"/>
                <circle id="Ellipse_494" data-name="Ellipse 494" cx="53.25" cy="53.25" r="53.25" transform="translate(25.115 124.717) rotate(-69.267)" fill="#263238"/>
                <g id="Group_4015" data-name="Group 4015" transform="translate(57.627 57.745)">
                  <rect id="Rectangle_1765" data-name="Rectangle 1765" width="12.611" height="12.611" transform="translate(20.47 14.465) rotate(9.202)" fill="#ffc727"/>
                  <rect id="Rectangle_1766" data-name="Rectangle 1766" width="12.611" height="12.611" transform="translate(10.038) rotate(9.202)" fill="#ffc727"/>
                  <rect id="Rectangle_1767" data-name="Rectangle 1767" width="12.611" height="12.611" transform="translate(59.833 8.067) rotate(9.202)" fill="#ffc727"/>
                  <rect id="Rectangle_1768" data-name="Rectangle 1768" width="12.611" height="12.611" transform="translate(2.017 49.513) rotate(9.202)" fill="#ffc727"/>
                  <rect id="Rectangle_1769" data-name="Rectangle 1769" width="12.611" height="12.611" transform="translate(51.811 57.581) rotate(9.202)" fill="#ffc727"/>
                  <rect id="Rectangle_1770" data-name="Rectangle 1770" width="12.611" height="12.611" transform="translate(16.482 39.082) rotate(9.202)" fill="#ffc727"/>
                  <rect id="Rectangle_1771" data-name="Rectangle 1771" width="12.611" height="12.611" transform="translate(30.925 28.79) rotate(9.202)" fill="#ffc727"/>
                  <rect id="Rectangle_1772" data-name="Rectangle 1772" width="12.611" height="12.611" transform="translate(45.367 18.499) rotate(9.202)" fill="#ffc727"/>
                  <rect id="Rectangle_1773" data-name="Rectangle 1773" width="12.611" height="12.611" transform="translate(41.379 43.115) rotate(9.203)" fill="#ffc727"/>
                </g>
              </g>
              <g id="Group_4020" data-name="Group 4020" transform="translate(178.501 28.152)">
                <g id="Group_4017" data-name="Group 4017">
                  <circle id="Ellipse_495" data-name="Ellipse 495" cx="66.397" cy="66.397" r="66.397" transform="translate(0 102.714) rotate(-50.667)" fill="#ffc727"/>
                  <circle id="Ellipse_496" data-name="Ellipse 496" cx="66.397" cy="66.397" r="66.397" transform="translate(0 102.714) rotate(-50.667)" opacity="0.2"/>
                  <path id="Path_5038" data-name="Path 5038" d="M401.654,332.677c-.306,1.308-.654,2.571-1.047,3.834l-129.42-27.6c.306-2.31.72-4.619,1.265-6.95a66.4,66.4,0,1,1,129.2,30.721Z" transform="translate(-243.61 -223.874)" opacity="0.2"/>
                </g>
                <circle id="Ellipse_497" data-name="Ellipse 497" cx="53.25" cy="53.25" r="53.25" transform="translate(23.779 64.836) rotate(-22.676)" fill="#263238"/>
                <g id="Group_4018" data-name="Group 4018" transform="translate(80.049 61.448)">
                  <rect id="Rectangle_1774" data-name="Rectangle 1774" width="12.611" height="62.77" transform="translate(14.514 0) rotate(13.369)" fill="#ffc727"/>
                </g>
                <g id="Group_4019" data-name="Group 4019" transform="translate(25.954 21.538)">
                  <path id="Path_5039" data-name="Path 5039" d="M406.439,334.584,270.5,302.279a69.864,69.864,0,0,1,135.942,32.306Z" transform="translate(-270.497 -248.568)" fill="#ffc727"/>
                  <path id="Path_5040" data-name="Path 5040" d="M406.439,334.584,270.5,302.279a69.864,69.864,0,0,1,135.942,32.306Z" transform="translate(-270.497 -248.568)" opacity="0.2"/>
                </g>
              </g>
              <path id="Path_5041" data-name="Path 5041" d="M250.071,307.918a24.59,24.59,0,0,1,6.143-14.949,17.991,17.991,0,0,1,7.218-4.857,20.3,20.3,0,0,1,8.7-.967,16.2,16.2,0,0,1,13.643,10.191,27.2,27.2,0,0,1,1.385,16.106c-.884-5.214-2.232-10.278-4.68-14.434a13.82,13.82,0,0,0-10.852-7.2,16.481,16.481,0,0,0-12.9,3.775C255.064,298.682,252.261,303.11,250.071,307.918Z" transform="translate(-93.655 -146.855)" opacity="0.1"/>
            </g>
            <g id="Group_4022" data-name="Group 4022" transform="translate(46.238 5.595)">
              <path id="Path_5042" data-name="Path 5042" d="M193.716,288.086c.553-7.1,1.348-14.154,2.02-21.231.755-7.065,1.531-14.128,2.392-21.177.816-7.058,1.736-14.1,2.636-21.144.884-7.046,1.905-14.074,2.853-21.113l.252-1.879,1.905.12q22.984,1.446,45.874,3.772,11.448,1.175,22.865,2.648c7.6,1.091,15.21,2.1,22.764,3.481l-45.9-2.841-45.855-2.968L207.677,204c-1.042,7.025-2.009,14.06-3.114,21.075-1.087,7.018-2.154,14.038-3.328,21.045-1.127,7.013-2.34,14.013-3.573,21.012C196.345,274.113,195.153,281.117,193.716,288.086Z" transform="translate(-193.716 -201.543)" fill="#fff"/>
              <path id="Path_5043" data-name="Path 5043" d="M198.411,288.856a58,58,0,0,1,10.624-23.731c1.3-1.778,2.771-3.424,4.191-5.118,1.533-1.583,3.13-3.116,4.708-4.673,1.717-1.4,3.453-2.782,5.216-4.125,1.877-1.188,3.725-2.427,5.633-3.568,2.006-.964,4-1.959,6.026-2.874l6.308-2.183,6.529-1.348c2.192-.32,4.419-.388,6.618-.553a63.986,63.986,0,0,1,25.563,4.9c-8.511-1.595-16.992-2.479-25.353-1.682a59.625,59.625,0,0,0-23.691,7.352,69.147,69.147,0,0,0-19.234,15.873A78.326,78.326,0,0,0,198.411,288.856Z" transform="translate(-187.369 -148.653)" fill="#fff"/>
              <path id="Path_5044" data-name="Path 5044" d="M276.287,291.984a57.956,57.956,0,0,1,13.8-22.035c1.529-1.585,3.217-3.01,4.857-4.49,1.738-1.357,3.533-2.655,5.311-3.979,1.893-1.145,3.8-2.279,5.736-3.366,2.023-.917,4.024-1.891,6.07-2.756,2.121-.677,4.233-1.388,6.364-2.013l6.55-1.291,6.654-.433c2.213-.016,4.429.226,6.63.365a64,64,0,0,1,24.641,8.382c-8.21-2.754-16.487-4.8-24.878-5.165a59.611,59.611,0,0,0-24.479,4.01A69.172,69.172,0,0,0,292.3,272.277,78.282,78.282,0,0,0,276.287,291.984Z" transform="translate(-82.089 -133.845)" fill="#fff"/>
            </g>
          </g>
          <g id="Group_4042" data-name="Group 4042" transform="translate(25.072 168.201)">
            <g id="Group_4026" data-name="Group 4026">
              <g id="Group_4024" data-name="Group 4024" transform="translate(28.917 55.437)">
                <path id="Path_5045" data-name="Path 5045" d="M246.413,447.125c-17.009,0-54.242-3.824-78.2-34.632-30.655-39.413-19.577-115.041-19.09-118.242l13.309,2.023c-.111.727-10.689,73.12,16.407,107.957,26.489,34.058,74.536,29.168,75.016,29.109l1.517,13.375A84.17,84.17,0,0,1,246.413,447.125Z" transform="translate(-146.777 -294.252)" fill="#ffc727"/>
                <path id="Path_5046" data-name="Path 5046" d="M246.413,447.125c-17.009,0-54.242-3.824-78.2-34.632-30.655-39.413-19.577-115.041-19.09-118.242l13.309,2.023c-.111.727-10.689,73.12,16.407,107.957,26.489,34.058,74.536,29.168,75.016,29.109l1.517,13.375A84.17,84.17,0,0,1,246.413,447.125Z" transform="translate(-146.777 -294.252)" fill="#fff" opacity="0.4"/>
              </g>
              <path id="Path_5047" data-name="Path 5047" d="M182.967,337.3a46.406,46.406,0,0,1-7.43-.612c-22.451-3.636-32.39-17.07-36.777-27.7-4.393-10.656-5.412-23.542-3.017-38.3l28.472,4.612c-1.482,9.147-1.051,17.2,1.211,22.691,1.613,3.914,4.746,8.61,14.725,10.228,4.558.738,9.483.348,14.645-7.437,3.982-6,6.376-14.182,7.213-19.358l28.472,4.612c-.659,4.073-3.45,18.326-11.647,30.688C209.92,330.163,197.372,337.3,182.967,337.3Z" transform="translate(-134.482 -270.681)" fill="#ffc727"/>
              <g id="Group_4025" data-name="Group 4025" transform="translate(120.874 152.295)">
                <path id="Path_5048" data-name="Path 5048" d="M221.681,429.976c-.049-.614-24.121-4.459-24.121-4.459L185.876,346.95l29.156-11.515Z" transform="translate(-185.876 -335.435)" fill="#ffc727"/>
                <path id="Path_5049" data-name="Path 5049" d="M221.681,429.976c-.049-.614-24.121-4.459-24.121-4.459L185.876,346.95l29.156-11.515Z" transform="translate(-185.876 -335.435)" opacity="0.2"/>
              </g>
            </g>
            <g id="Group_4027" data-name="Group 4027" transform="translate(394.682 152.61)">
              <path id="Path_5050" data-name="Path 5050" d="M302.3,429.941c.063-.614,24.215-3.925,24.215-3.925l13.418-78.29-28.9-12.157Z" transform="translate(-302.296 -335.569)" fill="#ffc727"/>
              <path id="Path_5051" data-name="Path 5051" d="M302.3,429.941c.063-.614,24.215-3.925,24.215-3.925l13.418-78.29-28.9-12.157Z" transform="translate(-302.296 -335.569)" opacity="0.2"/>
            </g>
            <path id="Path_5052" data-name="Path 5052" d="M196.843,329.7s194.7-8.326,260.475,2.636c0,0-19.314,188.4-20.358,192.056,0,0-193.681-.522-223.957,0C213,524.387,196.593,399.109,196.843,329.7Z" transform="translate(-50.18 -194.993)" fill="#ffc727"/>
            <g id="Group_4038" data-name="Group 4038" transform="translate(205.796 184.802)">
              <path id="Path_5053" data-name="Path 5053" d="M221.987,350.784s106.289-4.2,142.193,1.329c0,0-10.544,95-11.113,96.844,0,0-105.732-.263-122.261,0C230.807,448.956,223.544,383.936,221.987,350.784Z" transform="translate(-221.98 -349.257)" opacity="0.2"/>
              <path id="Path_5054" data-name="Path 5054" d="M236.519,448.177c-2.432,0-4.363.031-5.713.047,0,0-7.253-65.032-8.822-98.185,0,0,2.418-.094,6.639-.235Z" transform="translate(-221.984 -348.517)" opacity="0.2"/>
              <g id="Group_4032" data-name="Group 4032" transform="translate(12.937 6.778)">
                <g id="Group_4031" data-name="Group 4031">
                  <g id="Group_4030" data-name="Group 4030">
                    <g id="Group_4029" data-name="Group 4029">
                      <path id="Path_5055" data-name="Path 5055" d="M257.148,367.375a11.306,11.306,0,1,0,7.378,14.182A11.3,11.3,0,0,0,257.148,367.375Zm6.068,13.766a9.925,9.925,0,1,1-6.477-12.446A9.923,9.923,0,0,1,263.215,381.14Zm-6.068-13.766a11.306,11.306,0,1,0,7.378,14.182A11.3,11.3,0,0,0,257.148,367.375Zm6.068,13.766a9.925,9.925,0,1,1-6.477-12.446A9.923,9.923,0,0,1,263.215,381.14Zm-6.068-13.766a11.306,11.306,0,1,0,7.378,14.182A11.3,11.3,0,0,0,257.148,367.375Zm6.068,13.766a9.925,9.925,0,1,1-6.477-12.446A9.923,9.923,0,0,1,263.215,381.14Zm-2.3-25.709a23.828,23.828,0,1,0,15.555,29.886A23.836,23.836,0,0,0,260.915,355.432Zm5.292,26.649a13.06,13.06,0,1,1-8.528-16.379A13.077,13.077,0,0,1,266.207,382.081Zm-1.682-.524a11.3,11.3,0,1,0-14.17,7.385A11.306,11.306,0,0,0,264.525,381.557Zm-1.31-.416a9.925,9.925,0,1,1-6.477-12.446A9.923,9.923,0,0,1,263.215,381.14Zm-6.068-13.766a11.306,11.306,0,1,0,7.378,14.182A11.3,11.3,0,0,0,257.148,367.375Zm6.068,13.766a9.925,9.925,0,1,1-6.477-12.446A9.923,9.923,0,0,1,263.215,381.14Zm-6.068-13.766a11.306,11.306,0,1,0,7.378,14.182A11.3,11.3,0,0,0,257.148,367.375Zm6.068,13.766a9.925,9.925,0,1,1-6.477-12.446A9.923,9.923,0,0,1,263.215,381.14Z" transform="translate(-224.199 -349.184)" fill="#ffc727"/>
                      <g id="Group_4028" data-name="Group 4028">
                        <path id="Path_5056" data-name="Path 5056" d="M244.854,375.888l-8.739-2.754-1.466,6.338,7.772,2.449Z" transform="translate(-217.798 -323.755)" fill="#ffc727"/>
                        <path id="Path_5057" data-name="Path 5057" d="M237.915,375.5l-4.232-8.126-5.518,3.445,3.764,7.227Z" transform="translate(-226.565 -331.548)" fill="#ffc727"/>
                        <path id="Path_5058" data-name="Path 5058" d="M233.518,369.508l2.754-8.738-6.338-1.466-2.449,7.772Z" transform="translate(-227.484 -342.453)" fill="#ffc727"/>
                        <path id="Path_5059" data-name="Path 5059" d="M234.994,362.569l8.126-4.232-3.445-5.518-7.227,3.764Z" transform="translate(-220.775 -351.219)" fill="#ffc727"/>
                        <path id="Path_5060" data-name="Path 5060" d="M240.712,358.172l8.738,2.753,1.466-6.338-7.772-2.449Z" transform="translate(-209.602 -352.139)" fill="#ffc727"/>
                        <path id="Path_5061" data-name="Path 5061" d="M247.39,359.648l4.232,8.126,5.518-3.445-3.764-7.227Z" transform="translate(-200.574 -345.43)" fill="#ffc727"/>
                        <path id="Path_5062" data-name="Path 5062" d="M251.233,365.367l-2.753,8.738,6.338,1.466,2.449-7.772Z" transform="translate(-199.101 -334.256)" fill="#ffc727"/>
                        <path id="Path_5063" data-name="Path 5063" d="M250.842,372.044l-8.126,4.232,3.445,5.518,7.228-3.764Z" transform="translate(-206.894 -325.229)" fill="#ffc727"/>
                      </g>
                    </g>
                  </g>
                </g>
              </g>
              <g id="Group_4037" data-name="Group 4037" transform="translate(60.177 44.923)">
                <g id="Group_4036" data-name="Group 4036">
                  <g id="Group_4035" data-name="Group 4035">
                    <g id="Group_4034" data-name="Group 4034">
                      <path id="Path_5064" data-name="Path 5064" d="M269.445,379.567a7.612,7.612,0,1,0,2.22,10.532A7.614,7.614,0,0,0,269.445,379.567Zm1.446,10.024a6.682,6.682,0,1,1-1.952-9.243A6.68,6.68,0,0,1,270.891,389.591Zm-1.446-10.024a7.612,7.612,0,1,0,2.22,10.532A7.614,7.614,0,0,0,269.445,379.567Zm1.446,10.024a6.682,6.682,0,1,1-1.952-9.243A6.68,6.68,0,0,1,270.891,389.591Zm-1.446-10.024a7.612,7.612,0,1,0,2.22,10.532A7.614,7.614,0,0,0,269.445,379.567Zm1.446,10.024a6.682,6.682,0,1,1-1.952-9.243A6.68,6.68,0,0,1,270.891,389.591Zm3.156-17.086a16.043,16.043,0,1,0,4.685,22.193A16.046,16.046,0,0,0,274.047,372.5Zm-1.388,18.239a8.792,8.792,0,1,1-2.568-12.164A8.8,8.8,0,0,1,272.66,390.743Zm-.995-.644a7.609,7.609,0,1,0-10.525,2.227A7.613,7.613,0,0,0,271.665,390.1Zm-.774-.508a6.682,6.682,0,1,1-1.952-9.243A6.68,6.68,0,0,1,270.891,389.591Zm-1.446-10.024a7.612,7.612,0,1,0,2.22,10.532A7.614,7.614,0,0,0,269.445,379.567Zm1.446,10.024a6.682,6.682,0,1,1-1.952-9.243A6.68,6.68,0,0,1,270.891,389.591Zm-1.446-10.024a7.612,7.612,0,1,0,2.22,10.532A7.614,7.614,0,0,0,269.445,379.567Zm1.446,10.024a6.682,6.682,0,1,1-1.952-9.243A6.68,6.68,0,0,1,270.891,389.591Z" transform="translate(-245.304 -366.268)" fill="#dbdbdb"/>
                      <g id="Group_4033" data-name="Group 4033">
                        <path id="Path_5065" data-name="Path 5065" d="M257.776,384.853l-5.169-3.366-2.1,3.845,4.6,2.993Z" transform="translate(-243.596 -350.608)" fill="#dbdbdb"/>
                        <path id="Path_5066" data-name="Path 5066" d="M253.047,382.923l-1.275-6.035-4.2,1.236,1.134,5.368Z" transform="translate(-247.57 -356.825)" fill="#dbdbdb"/>
                        <path id="Path_5067" data-name="Path 5067" d="M251.728,378.564l3.366-5.169-3.845-2.1-2.993,4.6Z" transform="translate(-246.645 -364.383)" fill="#dbdbdb"/>
                        <path id="Path_5068" data-name="Path 5068" d="M253.523,373.834l6.035-1.275-1.236-4.2-5.368,1.134Z" transform="translate(-240.293 -368.358)" fill="#dbdbdb"/>
                        <path id="Path_5069" data-name="Path 5069" d="M258.263,372.515l5.169,3.366,2.1-3.845-4.6-2.994Z" transform="translate(-233.116 -367.432)" fill="#dbdbdb"/>
                        <path id="Path_5070" data-name="Path 5070" d="M261.964,374.31l1.275,6.035,4.2-1.236-1.134-5.367Z" transform="translate(-228.112 -361.079)" fill="#dbdbdb"/>
                        <path id="Path_5071" data-name="Path 5071" d="M264.066,379.05l-3.366,5.169,3.845,2.1,2.994-4.6Z" transform="translate(-229.821 -353.903)" fill="#dbdbdb"/>
                        <path id="Path_5072" data-name="Path 5072" d="M262.136,382.751l-6.035,1.275,1.236,4.2,5.368-1.134Z" transform="translate(-236.038 -348.899)" fill="#dbdbdb"/>
                      </g>
                    </g>
                  </g>
                </g>
              </g>
            </g>
            <g id="Group_4040" data-name="Group 4040" transform="translate(336.884 162.356)">
              <path id="Path_5073" data-name="Path 5073" d="M305.594,484.827l7.482,1.392,21.4-144.94-8.526-1.566Z" transform="translate(-240.039 -339.713)" fill="#ffc727"/>
              <g id="Group_4039" data-name="Group 4039">
                <path id="Path_5074" data-name="Path 5074" d="M277.721,461.859l11.113-96.844,74.8-25.3s-20.358,146.681-20.358,145.114Z" transform="translate(-277.721 -339.713)" fill="#ffc727"/>
                <path id="Path_5075" data-name="Path 5075" d="M277.721,461.859l11.113-96.844,74.8-25.3s-20.358,146.681-20.358,145.114Z" transform="translate(-277.721 -339.713)" fill="#fff" opacity="0.4"/>
              </g>
            </g>
            <path id="Path_5076" data-name="Path 5076" d="M202.3,383.147c-1.218-8.022-1.877-16.111-2.378-24.206-.228-4.048-.332-8.1-.423-12.159s-.151-8.112-.031-12.169l.033-1.068,1.037-.054c14.859-.8,29.709-1.776,44.575-2.425,14.864-.734,29.73-1.4,44.6-1.865-14.826,1.343-29.664,2.486-44.5,3.563-14.833,1.159-29.688,1.992-44.531,3l1.07-1.122-.061,12.112.141,12.117q.028,6.061.212,12.126Z" transform="translate(-46.707 -191.567)" fill="#fff"/>
            <path id="Path_5077" data-name="Path 5077" d="M286.882,362.544q6.953-3.3,14.1-6.136c4.749-1.933,9.539-3.763,14.387-5.442,4.854-1.658,9.725-3.281,14.678-4.659a137.52,137.52,0,0,1,15.033-3.511l1.254-.2-.223,1.2c-1.174,6.27-2.4,12.531-3.855,18.756.543-6.369,1.31-12.7,2.131-19.029l1.03.992c-4.941,1.176-9.843,2.554-14.73,4-4.883,1.461-9.751,3-14.605,4.579Z" transform="translate(71.548 -173.466)" fill="#fff"/>
            <g id="Group_4041" data-name="Group 4041" transform="translate(172.029 135.095)">
              <path id="Path_5078" data-name="Path 5078" d="M214.4,328.122l1.26,24.223,1.077,24.229,1.868,48.468,1.46,48.482.584,24.246.4,24.252L219.79,497.8l-1.078-24.229L216.847,425.1l-1.457-48.482-.585-24.246Z" transform="translate(-198.465 -328.122)" opacity="0.1"/>
              <path id="Path_5079" data-name="Path 5079" d="M216.626,336.441a4.574,4.574,0,0,1-3.126,5.268,4.568,4.568,0,1,1-1.8-8.914A4.573,4.573,0,0,1,216.626,336.441Zm0,0a3.663,3.663,0,0,0-4.748-2.778,3.695,3.695,0,0,0,1.449,7.185,3.67,3.67,0,0,0,3.3-4.408Z" transform="translate(-207.626 -321.841)" opacity="0.1"/>
              <path id="Path_5080" data-name="Path 5080" d="M217.334,348.79a4.574,4.574,0,0,1-3.126,5.268,4.567,4.567,0,1,1-1.8-8.914A4.573,4.573,0,0,1,217.334,348.79Zm0,0a3.663,3.663,0,0,0-4.748-2.778,3.695,3.695,0,0,0,1.449,7.185,3.667,3.667,0,0,0,3.3-4.408Z" transform="translate(-206.667 -305.146)" opacity="0.1"/>
              <path id="Path_5081" data-name="Path 5081" d="M217.785,361.9a4.571,4.571,0,0,1-3.126,5.266,4.567,4.567,0,1,1-1.8-8.914A4.577,4.577,0,0,1,217.785,361.9Zm0,0a3.666,3.666,0,0,0-4.748-2.78,3.695,3.695,0,0,0,1.449,7.185,3.666,3.666,0,0,0,3.3-4.405Z" transform="translate(-206.059 -287.426)" opacity="0.1"/>
              <path id="Path_5082" data-name="Path 5082" d="M218.235,375.008a4.574,4.574,0,0,1-3.126,5.268,4.569,4.569,0,1,1-1.8-8.916A4.577,4.577,0,0,1,218.235,375.008Zm0,0a3.663,3.663,0,0,0-4.748-2.778,3.695,3.695,0,0,0,1.449,7.185,3.67,3.67,0,0,0,3.3-4.407Z" transform="translate(-205.451 -269.705)" opacity="0.1"/>
              <path id="Path_5083" data-name="Path 5083" d="M218.685,388.117a4.573,4.573,0,0,1-3.126,5.266,4.568,4.568,0,1,1-1.8-8.914A4.576,4.576,0,0,1,218.685,388.117Zm0,0a3.666,3.666,0,0,0-4.748-2.78,3.695,3.695,0,0,0,1.449,7.185,3.67,3.67,0,0,0,3.3-4.405Z" transform="translate(-204.843 -251.983)" opacity="0.1"/>
              <path id="Path_5084" data-name="Path 5084" d="M219.135,401.225a4.57,4.57,0,0,1-3.126,5.266,4.568,4.568,0,1,1-1.8-8.914A4.579,4.579,0,0,1,219.135,401.225Zm0,0a3.781,3.781,0,0,0-1.82-2.5,3.742,3.742,0,0,0-2.928-.273,3.695,3.695,0,0,0,1.449,7.185,3.671,3.671,0,0,0,3.3-4.407Z" transform="translate(-204.234 -234.262)" opacity="0.1"/>
            </g>
          </g>
          <g id="Group_4045" data-name="Group 4045" transform="translate(0 459.372)">
            <rect id="Rectangle_1775" data-name="Rectangle 1775" width="115.198" height="13.461" transform="translate(111.321 91.435) rotate(-16.86)" fill="#ffc727"/>
            <rect id="Rectangle_1776" data-name="Rectangle 1776" width="115.198" height="13.461" transform="translate(111.321 91.435) rotate(-16.86)" fill="#fff" opacity="0.4"/>
            <rect id="Rectangle_1777" data-name="Rectangle 1777" width="13.461" height="19.993" transform="translate(155.922 73.683) rotate(-17.644)" fill="#ffc727"/>
            <g id="Group_4044" data-name="Group 4044">
              <path id="Path_5085" data-name="Path 5085" d="M238.138,517.674l-28.449-123.19-85.868,20.358L166.1,534.9Z" transform="translate(-123.821 -394.484)" fill="#ffc727"/>
              <g id="Group_4043" data-name="Group 4043" transform="translate(85.868)">
                <path id="Path_5086" data-name="Path 5086" d="M207.833,511.41l-19.053,6.264-28.449-123.19,27.4,6.525Z" transform="translate(-160.331 -394.484)" fill="#ffc727"/>
                <path id="Path_5087" data-name="Path 5087" d="M207.833,511.41l-19.053,6.264-28.449-123.19,27.4,6.525Z" transform="translate(-160.331 -394.484)" opacity="0.2"/>
              </g>
            </g>
            <circle id="Ellipse_498" data-name="Ellipse 498" cx="14.616" cy="14.616" r="14.616" transform="translate(208.904 49.85)" fill="#ffc727"/>
          </g>
          <g id="Group_4048" data-name="Group 4048" transform="translate(357.353 459.326)">
            <rect id="Rectangle_1778" data-name="Rectangle 1778" width="13.461" height="115.199" transform="matrix(0.292, -0.956, 0.956, 0.292, 12.649, 70.611)" fill="#ffc727"/>
            <rect id="Rectangle_1779" data-name="Rectangle 1779" width="13.461" height="115.199" transform="matrix(0.292, -0.956, 0.956, 0.292, 12.649, 70.611)" fill="#fff" opacity="0.4"/>
            <rect id="Rectangle_1780" data-name="Rectangle 1780" width="19.993" height="13.461" transform="matrix(0.305, -0.952, 0.952, 0.305, 63.274, 88.467)" fill="#ffc727"/>
            <g id="Group_4047" data-name="Group 4047" transform="translate(104.655)">
              <path id="Path_5088" data-name="Path 5088" d="M328.357,517.594l28.71-123.129L442.892,415,400.355,534.973Z" transform="translate(-309.318 -394.464)" fill="#ffc727"/>
              <g id="Group_4046" data-name="Group 4046">
                <path id="Path_5089" data-name="Path 5089" d="M320.262,511.289l19.039,6.3,28.71-123.129-27.418,6.467Z" transform="translate(-320.262 -394.464)" fill="#ffc727"/>
                <path id="Path_5090" data-name="Path 5090" d="M320.262,511.289l19.039,6.3,28.71-123.129-27.418,6.467Z" transform="translate(-320.262 -394.464)" opacity="0.2"/>
              </g>
            </g>
            <path id="Path_5091" data-name="Path 5091" d="M275.764,430.12a14.616,14.616,0,1,0,14.648-14.584A14.618,14.618,0,0,0,275.764,430.12Z" transform="translate(-275.764 -365.977)" fill="#ffc727"/>
          </g>
          <g id="Group_4050" data-name="Group 4050" transform="translate(458.381 333.731)">
            <g id="Group_4049" data-name="Group 4049">
              <path id="Path_5092" data-name="Path 5092" d="M327.993,378.856c.343-.325,35.756-33.169,77.41-21.936,42.6,11.494,77.768,75.653,78.118,76.3l11.839-6.4c-1.538-2.848-38.221-69.908-86.453-82.895-49.053-13.229-88.53,23.6-90.188,25.175Z" transform="translate(-318.72 -341.063)" fill="#ffc727"/>
              <path id="Path_5093" data-name="Path 5093" d="M327.993,378.856c.343-.325,35.756-33.169,77.41-21.936,42.6,11.494,77.768,75.653,78.118,76.3l11.839-6.4c-1.538-2.848-38.221-69.908-86.453-82.895-49.053-13.229-88.53,23.6-90.188,25.175Z" transform="translate(-318.72 -341.063)" fill="#fff" opacity="0.4"/>
            </g>
            <path id="Path_5094" data-name="Path 5094" d="M387.459,453.6l25.506-13.467c-2.448-4.638-5.461-12.606-5.9-19.8-.567-9.325,3.133-12.6,7.216-14.758,8.937-4.72,14.269-2.848,17.912-.7,5.111,3.018,10.308,9.191,14.633,17.385L472.334,408.8c-6.983-13.222-15.553-22.9-25.48-28.757-9.9-5.837-25.93-10.584-46.043.035-15.678,8.276-23.681,23.2-22.536,42.017C379.176,436.9,385.533,449.955,387.459,453.6Z" transform="translate(-238.354 -296.853)" fill="#ffc727"/>
          </g>
          <g id="Group_4051" data-name="Group 4051" transform="translate(458.381 285.751)">
            <path id="Path_5095" data-name="Path 5095" d="M324.949,361.491c5.529-3.819,11.19-7.418,16.868-10.983,5.668-3.587,11.428-7.016,17.188-10.445,5.788-3.38,11.578-6.755,17.463-9.974l8.829-4.819c2.987-1.533,5.931-3.137,8.956-4.607-2.754,1.931-5.583,3.73-8.37,5.6l-8.5,5.386c-5.666,3.587-11.426,7.016-17.188,10.44-5.79,3.377-11.581,6.755-17.465,9.972C336.861,355.3,330.97,358.506,324.949,361.491Z" transform="translate(-310.299 -320.662)" fill="#263238"/>
            <path id="Path_5096" data-name="Path 5096" d="M318.72,361.423c7.919,4.513,15.424,9.6,22.825,14.836,7.361,5.292,14.619,10.727,21.459,16.75-7.919-4.509-15.424-9.6-22.823-14.836C332.822,372.877,325.564,367.441,318.72,361.423Z" transform="translate(-318.72 -265.557)" fill="#263238"/>
            <path id="Path_5097" data-name="Path 5097" d="M324.249,358.545c6.11,1.856,12.126,3.954,18.128,6.087,6.011,2.107,11.955,4.389,17.9,6.67,5.924,2.333,11.847,4.671,17.7,7.178l8.782,3.768c2.9,1.336,5.821,2.6,8.69,4-3.062-.906-6.073-1.954-9.109-2.926l-9.02-3.159c-6.011-2.11-11.957-4.389-17.9-6.672-5.924-2.335-11.846-4.673-17.7-7.183C335.858,363.825,330.009,361.306,324.249,358.545Z" transform="translate(-311.245 -269.448)" fill="#263238"/>
            <path id="Path_5098" data-name="Path 5098" d="M331.63,347.419c5.856-1.522,11.757-2.789,17.663-4.019,5.9-1.254,11.837-2.328,17.771-3.4,5.946-1.018,11.889-2.032,17.865-2.867l8.968-1.242c3-.332,5.993-.741,9.008-1-2.923.786-5.873,1.42-8.81,2.133l-8.853,1.891c-5.9,1.254-11.835,2.328-17.771,3.4-5.943,1.014-11.889,2.03-17.865,2.862C343.634,346.033,337.653,346.854,331.63,347.419Z" transform="translate(-301.267 -301.427)" fill="#263238"/>
          </g>
        </g>
      </g>
      <g id="Gears" transform="translate(103.224 131.065)">
        <g id="Group_4072" data-name="Group 4072" transform="translate(0 0)">
          <path id="Path_5099" data-name="Path 5099" d="M271.622,396.739c3.269-14.45,15.755-38.324,34.436-35.321s20.055,29.831,10.449,29S306.287,335.564,339,326.94s52.48,24.175,52.48,24.175" transform="translate(205.344 250.441)" fill="none" stroke="#263238" stroke-miterlimit="10" stroke-width="1"/>
          <path id="Path_5100" data-name="Path 5100" d="M179.217,392.322c6.87-12.192,24.342-21.513,39.2-15.407,21.661,8.9,24.958,42.139,13.839,41.518-17.82-1,4.788-48.2,39.58-44.361,31.334,3.462,36.4,39.865,36.4,39.865" transform="translate(80.422 315.81)" fill="none" stroke="#263238" stroke-miterlimit="10" stroke-width="1"/>
          <path id="Path_5101" data-name="Path 5101" d="M193.6,191.375c.273-14.815-6.153-40.979-25.012-42.52s-26.6,24.182-17.068,25.664,23.016-50.827-6.7-67.01-56.73,10.95-56.73,10.95" transform="translate(-42.77 -51.215)" fill="none" stroke="#263238" stroke-miterlimit="10" stroke-width="1"/>
          <path id="Path_5102" data-name="Path 5102" d="M413.393,193.48c-14.339-3.721-41.283-3.577-47.181,14.4s17.31,31.5,20.972,22.585-44.053-34.241-66.723-9.125-2.587,57.723-2.587,57.723" transform="translate(256.777 69.362)" fill="none" stroke="#263238" stroke-miterlimit="10" stroke-width="1"/>
          <path id="Path_5103" data-name="Path 5103" d="M292.565,186.674c-4.325-16.2,2.839-38.809,20.676-46.017,26.01-10.508,56.662,15.2,46.615,23.975-16.1,14.067-36.257-45.3-3.236-71.135,29.74-23.27,64.557,3.669,64.557,3.669" transform="translate(231.998 -75.999)" fill="none" stroke="#263238" stroke-miterlimit="10" stroke-width="1"/>
          <g id="Group_4057" data-name="Group 4057" transform="translate(222.629 692.554)">
            <g id="Group_4056" data-name="Group 4056">
              <g id="Group_4055" data-name="Group 4055">
                <g id="Group_4054" data-name="Group 4054">
                  <path id="Path_5104" data-name="Path 5104" d="M189.722,388.559a10,10,0,1,0,6.527,12.543A10,10,0,0,0,189.722,388.559Zm5.367,12.176a8.78,8.78,0,1,1-5.729-11.012A8.777,8.777,0,0,1,195.089,400.734Zm-5.367-12.176a10,10,0,1,0,6.527,12.543A10,10,0,0,0,189.722,388.559Zm5.367,12.176a8.78,8.78,0,1,1-5.729-11.012A8.777,8.777,0,0,1,195.089,400.734Zm-5.367-12.176a10,10,0,1,0,6.527,12.543A10,10,0,0,0,189.722,388.559Zm5.367,12.176a8.78,8.78,0,1,1-5.729-11.012A8.777,8.777,0,0,1,195.089,400.734Zm-2.034-22.743a21.08,21.08,0,1,0,13.761,26.438A21.09,21.09,0,0,0,193.055,377.992Zm4.68,23.575a11.553,11.553,0,1,1-7.543-14.49A11.566,11.566,0,0,1,197.735,401.567Zm-1.486-.466a10,10,0,1,0-12.536,6.534A10,10,0,0,0,196.249,401.1Zm-1.159-.367a8.78,8.78,0,1,1-5.729-11.012A8.777,8.777,0,0,1,195.089,400.734Zm-5.367-12.176a10,10,0,1,0,6.527,12.543A10,10,0,0,0,189.722,388.559Zm5.367,12.176a8.78,8.78,0,1,1-5.729-11.012A8.777,8.777,0,0,1,195.089,400.734Zm-5.367-12.176a10,10,0,1,0,6.527,12.543A10,10,0,0,0,189.722,388.559Zm5.367,12.176a8.78,8.78,0,1,1-5.729-11.012A8.777,8.777,0,0,1,195.089,400.734Z" transform="translate(-160.574 -372.466)" fill="#455a64"/>
                  <g id="Group_4053" data-name="Group 4053">
                    <path id="Path_5105" data-name="Path 5105" d="M178.846,396.089l-7.73-2.436-1.3,5.607,6.875,2.166Z" transform="translate(-154.912 -349.971)" fill="#455a64"/>
                    <path id="Path_5106" data-name="Path 5106" d="M172.708,395.742l-3.744-7.188-4.881,3.047,3.33,6.394Z" transform="translate(-162.667 -356.864)" fill="#455a64"/>
                    <path id="Path_5107" data-name="Path 5107" d="M168.818,390.445l2.436-7.73-5.606-1.3-2.167,6.876Z" transform="translate(-163.481 -366.511)" fill="#455a64"/>
                    <path id="Path_5108" data-name="Path 5108" d="M170.124,384.307l7.188-3.743-3.047-4.882-6.394,3.33Z" transform="translate(-157.546 -374.266)" fill="#455a64"/>
                    <path id="Path_5109" data-name="Path 5109" d="M175.182,380.417l7.73,2.436,1.3-5.606-6.876-2.166Z" transform="translate(-147.661 -375.08)" fill="#455a64"/>
                    <path id="Path_5110" data-name="Path 5110" d="M181.089,381.722l3.744,7.189,4.881-3.048-3.33-6.393Z" transform="translate(-139.675 -369.145)" fill="#455a64"/>
                    <path id="Path_5111" data-name="Path 5111" d="M184.49,386.781l-2.436,7.73,5.606,1.3,2.167-6.876Z" transform="translate(-138.372 -359.26)" fill="#455a64"/>
                    <path id="Path_5112" data-name="Path 5112" d="M184.143,392.688l-7.189,3.744L180,401.314l6.394-3.33Z" transform="translate(-145.266 -351.274)" fill="#455a64"/>
                  </g>
                </g>
              </g>
            </g>
          </g>
          <g id="Group_4059" data-name="Group 4059" transform="translate(575.582 582.558)">
            <g id="Group_4058" data-name="Group 4058" transform="translate(0)">
              <path id="Path_5113" data-name="Path 5113" d="M375.066,382.9a32.218,32.218,0,1,0-45.072,6.677A32.217,32.217,0,0,0,375.066,382.9ZM361.277,372.67a15.045,15.045,0,1,1-3.116-21.042A15.046,15.046,0,0,1,361.277,372.67Z" transform="translate(-308.928 -324.015)" fill="#263238"/>
              <path id="Path_5114" data-name="Path 5114" d="M333.369,361.543l-9.948-7.383-4.676,7.45,8.848,6.567Z" transform="translate(-306.533 -293.364)" fill="#263238"/>
              <path id="Path_5115" data-name="Path 5115" d="M323.941,356.944l-1.814-12.255-8.575,1.962,1.613,10.9Z" transform="translate(-313.553 -306.169)" fill="#263238"/>
              <path id="Path_5116" data-name="Path 5116" d="M322.071,348.127l7.383-9.948L322,333.5l-6.567,8.848Z" transform="translate(-311.005 -321.291)" fill="#263238"/>
              <path id="Path_5117" data-name="Path 5117" d="M326.006,338.7l12.255-1.814L336.3,328.31l-10.9,1.613Z" transform="translate(-297.536 -328.31)" fill="#263238"/>
              <path id="Path_5118" data-name="Path 5118" d="M335.836,336.829l9.948,7.383,4.676-7.45-8.848-6.567Z" transform="translate(-283.428 -325.763)" fill="#263238"/>
              <path id="Path_5119" data-name="Path 5119" d="M342.829,340.764l1.814,12.255,8.575-1.961-1.613-10.9Z" transform="translate(-273.973 -312.294)" fill="#263238"/>
              <path id="Path_5120" data-name="Path 5120" d="M346.786,350.594l-7.383,9.948,7.45,4.676,6.567-8.849Z" transform="translate(-278.606 -298.186)" fill="#263238"/>
              <path id="Path_5121" data-name="Path 5121" d="M342.186,357.587,329.93,359.4l1.961,8.575,10.9-1.613Z" transform="translate(-291.411 -288.731)" fill="#263238"/>
            </g>
            <path id="Path_5122" data-name="Path 5122" d="M325.767,352.655l6.842,8.632,10.9-1.618,4.045-10.238-6.837-8.627-10.9,1.609Zm12.973-4.417a3.492,3.492,0,1,1-4.885.724A3.488,3.488,0,0,1,338.74,348.238Z" transform="translate(-297.04 -311.421)" fill="#263238"/>
          </g>
          <g id="Group_4064" data-name="Group 4064" transform="translate(640.368)">
            <g id="Group_4063" data-name="Group 4063" transform="translate(0)">
              <g id="Group_4062" data-name="Group 4062">
                <g id="Group_4061" data-name="Group 4061">
                  <path id="Path_5123" data-name="Path 5123" d="M364.061,92.409a8.751,8.751,0,1,0,5.713,10.976A8.75,8.75,0,0,0,364.061,92.409Zm4.7,10.654a7.682,7.682,0,1,1-5.014-9.636A7.681,7.681,0,0,1,368.757,103.063Zm-4.7-10.654a8.751,8.751,0,1,0,5.713,10.976A8.75,8.75,0,0,0,364.061,92.409Zm4.7,10.654a7.682,7.682,0,1,1-5.014-9.636A7.681,7.681,0,0,1,368.757,103.063Zm-4.7-10.654a8.751,8.751,0,1,0,5.713,10.976A8.75,8.75,0,0,0,364.061,92.409Zm4.7,10.654a7.682,7.682,0,1,1-5.014-9.636A7.681,7.681,0,0,1,368.757,103.063Zm-1.78-19.9A18.446,18.446,0,1,0,379.019,106.3,18.456,18.456,0,0,0,366.977,83.161Zm4.1,20.631a10.11,10.11,0,1,1-6.6-12.679A10.124,10.124,0,0,1,371.074,103.792Zm-1.3-.407A8.749,8.749,0,1,0,358.8,109.1,8.752,8.752,0,0,0,369.773,103.385Zm-1.016-.322a7.682,7.682,0,1,1-5.014-9.636A7.681,7.681,0,0,1,368.757,103.063Zm-4.7-10.654a8.751,8.751,0,1,0,5.713,10.976A8.75,8.75,0,0,0,364.061,92.409Zm4.7,10.654a7.682,7.682,0,1,1-5.014-9.636A7.681,7.681,0,0,1,368.757,103.063Zm-4.7-10.654a8.751,8.751,0,1,0,5.713,10.976A8.75,8.75,0,0,0,364.061,92.409Zm4.7,10.654a7.682,7.682,0,1,1-5.014-9.636A7.681,7.681,0,0,1,368.757,103.063Z" transform="translate(-338.556 -78.327)" fill="#263238"/>
                  <g id="Group_4060" data-name="Group 4060">
                    <path id="Path_5124" data-name="Path 5124" d="M354.544,99l-6.764-2.132-1.135,4.906,6.016,1.9Z" transform="translate(-333.601 -58.642)" fill="#263238"/>
                    <path id="Path_5125" data-name="Path 5125" d="M349.173,98.694,345.9,92.4l-4.271,2.667,2.914,5.595Z" transform="translate(-340.386 -64.674)" fill="#263238"/>
                    <path id="Path_5126" data-name="Path 5126" d="M345.769,94.058l2.132-6.764-4.906-1.135-1.9,6.016Z" transform="translate(-341.099 -73.116)" fill="#263238"/>
                    <path id="Path_5127" data-name="Path 5127" d="M346.911,88.687l6.29-3.276-2.667-4.271-5.594,2.914Z" transform="translate(-335.905 -79.901)" fill="#263238"/>
                    <path id="Path_5128" data-name="Path 5128" d="M351.338,85.284l6.764,2.131,1.135-4.906-6.016-1.9Z" transform="translate(-327.256 -80.613)" fill="#263238"/>
                    <path id="Path_5129" data-name="Path 5129" d="M356.507,86.426l3.276,6.29,4.271-2.667-2.914-5.594Z" transform="translate(-320.268 -75.42)" fill="#263238"/>
                    <path id="Path_5130" data-name="Path 5130" d="M359.482,90.853l-2.131,6.764,4.906,1.135,1.9-6.016Z" transform="translate(-319.127 -66.771)" fill="#263238"/>
                    <path id="Path_5131" data-name="Path 5131" d="M359.179,96.022l-6.29,3.276,2.667,4.272,5.595-2.914Z" transform="translate(-325.16 -59.783)" fill="#263238"/>
                  </g>
                </g>
              </g>
            </g>
          </g>
          <g id="Group_4069" data-name="Group 4069" transform="translate(550.488 336.004)">
            <g id="Group_4068" data-name="Group 4068">
              <g id="Group_4067" data-name="Group 4067">
                <g id="Group_4066" data-name="Group 4066">
                  <path id="Path_5132" data-name="Path 5132" d="M325.847,235.273a8.751,8.751,0,1,0,5.71,10.976A8.753,8.753,0,0,0,325.847,235.273Zm4.694,10.654a7.682,7.682,0,1,1-5.014-9.636A7.681,7.681,0,0,1,330.541,245.927Zm-4.694-10.654a8.751,8.751,0,1,0,5.71,10.976A8.753,8.753,0,0,0,325.847,235.273Zm4.694,10.654a7.682,7.682,0,1,1-5.014-9.636A7.681,7.681,0,0,1,330.541,245.927Zm-4.694-10.654a8.751,8.751,0,1,0,5.71,10.976A8.753,8.753,0,0,0,325.847,235.273Zm4.694,10.654a7.682,7.682,0,1,1-5.014-9.636A7.681,7.681,0,0,1,330.541,245.927Zm-1.778-19.9A18.446,18.446,0,1,0,340.8,249.161,18.453,18.453,0,0,0,328.763,226.028Zm4.095,20.628a10.11,10.11,0,1,1-6.6-12.679A10.121,10.121,0,0,1,332.858,246.656Zm-1.3-.407a8.749,8.749,0,1,0-10.969,5.717A8.751,8.751,0,0,0,331.557,246.249Zm-1.016-.322a7.682,7.682,0,1,1-5.014-9.636A7.681,7.681,0,0,1,330.541,245.927Zm-4.694-10.654a8.751,8.751,0,1,0,5.71,10.976A8.753,8.753,0,0,0,325.847,235.273Zm4.694,10.654a7.682,7.682,0,1,1-5.014-9.636A7.681,7.681,0,0,1,330.541,245.927Zm-4.694-10.654a8.751,8.751,0,1,0,5.71,10.976A8.753,8.753,0,0,0,325.847,235.273Zm4.694,10.654a7.682,7.682,0,1,1-5.014-9.636A7.681,7.681,0,0,1,330.541,245.927Z" transform="translate(-300.34 -221.191)" fill="#263238"/>
                  <g id="Group_4065" data-name="Group 4065">
                    <path id="Path_5133" data-name="Path 5133" d="M316.328,241.862l-6.764-2.131-1.135,4.906,6.016,1.9Z" transform="translate(-295.385 -201.507)" fill="#263238"/>
                    <path id="Path_5134" data-name="Path 5134" d="M310.957,241.559l-3.276-6.29-4.271,2.667,2.914,5.594Z" transform="translate(-302.171 -207.54)" fill="#263238"/>
                    <path id="Path_5135" data-name="Path 5135" d="M307.553,236.924l2.131-6.764-4.906-1.135-1.9,6.016Z" transform="translate(-302.883 -215.981)" fill="#263238"/>
                    <path id="Path_5136" data-name="Path 5136" d="M308.7,231.553l6.29-3.276-2.667-4.271-5.594,2.914Z" transform="translate(-297.689 -222.766)" fill="#263238"/>
                    <path id="Path_5137" data-name="Path 5137" d="M313.122,228.149l6.764,2.131,1.135-4.906-6.016-1.9Z" transform="translate(-289.04 -223.479)" fill="#263238"/>
                    <path id="Path_5138" data-name="Path 5138" d="M318.291,229.291l3.276,6.29,4.271-2.667-2.914-5.594Z" transform="translate(-282.052 -218.285)" fill="#263238"/>
                    <path id="Path_5139" data-name="Path 5139" d="M321.266,233.718l-2.131,6.764,4.906,1.135,1.9-6.016Z" transform="translate(-280.911 -209.636)" fill="#263238"/>
                    <path id="Path_5140" data-name="Path 5140" d="M320.963,238.887l-6.29,3.276,2.667,4.271,5.595-2.914Z" transform="translate(-286.944 -202.648)" fill="#263238"/>
                  </g>
                </g>
              </g>
            </g>
          </g>
          <g id="Group_4071" data-name="Group 4071" transform="translate(0 45.025)">
            <g id="Group_4070" data-name="Group 4070">
              <path id="Path_5141" data-name="Path 5141" d="M126.464,136.716a27.741,27.741,0,1,0-33.517,20.391A27.741,27.741,0,0,0,126.464,136.716Zm-14.365-3.5a12.956,12.956,0,1,1-9.518-15.65A12.952,12.952,0,0,1,112.1,133.216Z" transform="translate(-64.845 -96.18)" fill="#263238"/>
              <path id="Path_5142" data-name="Path 5142" d="M89.744,127.175l-10.365-2.525-1.215,7.476,9.219,2.246Z" transform="translate(-56.19 -66.107)" fill="#263238"/>
              <path id="Path_5143" data-name="Path 5143" d="M81.781,127.434l-5.543-9.115-6.145,4.428,4.93,8.107Z" transform="translate(-67.104 -74.664)" fill="#263238"/>
              <path id="Path_5144" data-name="Path 5144" d="M76.018,120.68l2.525-10.365L71.067,109.1l-2.246,9.218Z" transform="translate(-68.821 -87.126)" fill="#263238"/>
              <path id="Path_5145" data-name="Path 5145" d="M77.376,112.717l9.115-5.543-4.428-6.145-8.107,4.93Z" transform="translate(-61.88 -98.04)" fill="#263238"/>
              <path id="Path_5146" data-name="Path 5146" d="M83.58,106.955l10.365,2.525L95.159,102l-9.218-2.246Z" transform="translate(-48.869 -99.758)" fill="#263238"/>
              <path id="Path_5147" data-name="Path 5147" d="M91.606,108.312l5.543,9.114L103.3,113l-4.93-8.107Z" transform="translate(-38.018 -92.817)" fill="#263238"/>
              <path id="Path_5148" data-name="Path 5148" d="M96.238,114.517l-2.525,10.365,7.476,1.215,2.246-9.219Z" transform="translate(-35.17 -79.805)" fill="#263238"/>
              <path id="Path_5149" data-name="Path 5149" d="M96.5,122.543l-9.114,5.543,4.428,6.146,8.107-4.931Z" transform="translate(-43.728 -68.955)" fill="#263238"/>
            </g>
            <path id="Path_5150" data-name="Path 5150" d="M80.015,124.648l8.319,4.556,8.1-4.934-.219-9.476L87.9,110.24,79.8,115.165Zm8.813-7.848a3.006,3.006,0,1,1-3.634,2.208A3,3,0,0,1,88.827,116.8Z" transform="translate(-53.985 -85.587)" fill="#263238"/>
          </g>
        </g>
      </g>
      <g id="Speech_Bubble" data-name="Speech Bubble" transform="translate(778.511 398.273)">
        <g id="Group_4074" data-name="Group 4074">
          <path id="Path_5151" data-name="Path 5151" d="M369.22,299.383a57.771,57.771,0,0,1-9.885-31.922c0-40.443,44.413-73.233,99.163-73.233s99.118,32.79,99.118,73.233-44.369,73.233-99.118,73.233c-26.548,0-50.615-7.691-68.4-20.262l-34.157,8.683Z" transform="translate(-355.946 -194.227)" fill="#fff" stroke="#263238" stroke-miterlimit="10" stroke-width="1"/>
          <g id="Group_4073" data-name="Group 4073" transform="translate(29.354 58.487)">
            <path id="Path_5152" data-name="Path 5152" d="M390.615,245.7v5.447H368.427V219.191H390.21v5.447H374.638v7.7H388.1v5.042H374.638V245.7Z" transform="translate(-368.427 -218.965)" fill="#263238"/>
            <path id="Path_5153" data-name="Path 5153" d="M379.929,251.149V219.191h14.133a9.085,9.085,0,0,1,4.074.922,10.591,10.591,0,0,1,3.217,2.432,11.4,11.4,0,0,1,2.114,3.42,10.3,10.3,0,0,1,.767,3.85,10.6,10.6,0,0,1-1.555,5.647,8.9,8.9,0,0,1-4.208,3.669l7.293,12.018h-6.978l-6.524-10.713H386.14v10.713Zm6.211-16.16h7.787a3.275,3.275,0,0,0,1.6-.4,4.064,4.064,0,0,0,1.282-1.1,5.4,5.4,0,0,0,.856-1.642,6.32,6.32,0,0,0,.315-2.025,5.784,5.784,0,0,0-.36-2.072,5.393,5.393,0,0,0-.969-1.642,4.391,4.391,0,0,0-1.395-1.082,3.634,3.634,0,0,0-1.6-.381H386.14Z" transform="translate(-352.878 -218.965)" fill="#263238"/>
            <path id="Path_5154" data-name="Path 5154" d="M392.654,251.149V219.191h14.135a9.075,9.075,0,0,1,4.071.922,10.573,10.573,0,0,1,3.22,2.432,11.5,11.5,0,0,1,2.114,3.42,10.3,10.3,0,0,1,.764,3.85,10.6,10.6,0,0,1-1.552,5.647,8.9,8.9,0,0,1-4.208,3.669l7.293,12.018h-6.978l-6.527-10.713h-6.12v10.713Zm6.214-16.16h7.785a3.269,3.269,0,0,0,1.6-.4,4.044,4.044,0,0,0,1.284-1.1,5.452,5.452,0,0,0,.854-1.642,6.321,6.321,0,0,0,.318-2.025,5.835,5.835,0,0,0-.36-2.072,5.491,5.491,0,0,0-.969-1.642,4.391,4.391,0,0,0-1.395-1.082,3.644,3.644,0,0,0-1.6-.381h-7.514Z" transform="translate(-335.675 -218.965)" fill="#263238"/>
            <path id="Path_5155" data-name="Path 5155" d="M420.131,251.5a14.525,14.525,0,0,1-6.369-1.371,15.612,15.612,0,0,1-4.906-3.645,16.878,16.878,0,0,1-4.3-11.186,16.072,16.072,0,0,1,1.19-6.122A16.873,16.873,0,0,1,409.035,224a15.7,15.7,0,0,1,4.974-3.58,14.778,14.778,0,0,1,6.256-1.329,14.033,14.033,0,0,1,6.324,1.418,15.8,15.8,0,0,1,4.883,3.714,17.125,17.125,0,0,1,3.152,5.221,16.428,16.428,0,0,1,1.124,5.941,16.189,16.189,0,0,1-1.169,6.1,16.569,16.569,0,0,1-3.241,5.132,15.568,15.568,0,0,1-4.951,3.556A14.776,14.776,0,0,1,420.131,251.5Zm-9.273-16.2a12.82,12.82,0,0,0,.63,4.005,10.711,10.711,0,0,0,1.823,3.422,9.062,9.062,0,0,0,2.926,2.385,9.067,9.067,0,0,0,7.924-.021,9.135,9.135,0,0,0,2.926-2.453,10.971,10.971,0,0,0,1.8-3.445,12.8,12.8,0,0,0,.607-3.892,12.517,12.517,0,0,0-.651-4.005A11.142,11.142,0,0,0,427,227.872a8.794,8.794,0,0,0-2.928-2.361,9.1,9.1,0,0,0-7.9.045,8.875,8.875,0,0,0-2.926,2.43,10.919,10.919,0,0,0-1.778,3.422A12.731,12.731,0,0,0,410.857,235.3Z" transform="translate(-319.58 -219.095)" fill="#263238"/>
            <path id="Path_5156" data-name="Path 5156" d="M419.849,251.149V219.191h14.133a9.092,9.092,0,0,1,4.073.922,10.592,10.592,0,0,1,3.217,2.432,11.4,11.4,0,0,1,2.114,3.42,10.3,10.3,0,0,1,.767,3.85,10.6,10.6,0,0,1-1.555,5.647,8.9,8.9,0,0,1-4.208,3.669l7.293,12.018h-6.978l-6.524-10.713H426.06v10.713Zm6.211-16.16h7.787a3.266,3.266,0,0,0,1.595-.4,4.044,4.044,0,0,0,1.284-1.1,5.407,5.407,0,0,0,.856-1.642,6.387,6.387,0,0,0,.315-2.025,5.784,5.784,0,0,0-.36-2.072,5.393,5.393,0,0,0-.969-1.642,4.391,4.391,0,0,0-1.395-1.082,3.636,3.636,0,0,0-1.6-.381H426.06Z" transform="translate(-298.91 -218.965)" fill="#263238"/>
          </g>
        </g>
      </g>
    </g>
  </g>
</svg>
